%TF.GenerationSoftware,KiCad,Pcbnew,7.0.7*%
%TF.CreationDate,2024-08-19T02:41:26-07:00*%
%TF.ProjectId,CombatPDB,436f6d62-6174-4504-9442-2e6b69636164,rev?*%
%TF.SameCoordinates,Original*%
%TF.FileFunction,Legend,Top*%
%TF.FilePolarity,Positive*%
%FSLAX46Y46*%
G04 Gerber Fmt 4.6, Leading zero omitted, Abs format (unit mm)*
G04 Created by KiCad (PCBNEW 7.0.7) date 2024-08-19 02:41:26*
%MOMM*%
%LPD*%
G01*
G04 APERTURE LIST*
%ADD10C,0.300000*%
%ADD11C,0.150000*%
%ADD12C,0.120000*%
G04 APERTURE END LIST*
D10*
X163445489Y-63729400D02*
X162302632Y-63729400D01*
X162874060Y-64300828D02*
X162874060Y-63157971D01*
D11*
X136214285Y-68931009D02*
X136357142Y-68978628D01*
X136357142Y-68978628D02*
X136404761Y-69026247D01*
X136404761Y-69026247D02*
X136452380Y-69121485D01*
X136452380Y-69121485D02*
X136452380Y-69264342D01*
X136452380Y-69264342D02*
X136404761Y-69359580D01*
X136404761Y-69359580D02*
X136357142Y-69407200D01*
X136357142Y-69407200D02*
X136261904Y-69454819D01*
X136261904Y-69454819D02*
X135880952Y-69454819D01*
X135880952Y-69454819D02*
X135880952Y-68454819D01*
X135880952Y-68454819D02*
X136214285Y-68454819D01*
X136214285Y-68454819D02*
X136309523Y-68502438D01*
X136309523Y-68502438D02*
X136357142Y-68550057D01*
X136357142Y-68550057D02*
X136404761Y-68645295D01*
X136404761Y-68645295D02*
X136404761Y-68740533D01*
X136404761Y-68740533D02*
X136357142Y-68835771D01*
X136357142Y-68835771D02*
X136309523Y-68883390D01*
X136309523Y-68883390D02*
X136214285Y-68931009D01*
X136214285Y-68931009D02*
X135880952Y-68931009D01*
X136738095Y-68454819D02*
X137309523Y-68454819D01*
X137023809Y-69454819D02*
X137023809Y-68454819D01*
X138166666Y-69454819D02*
X137595238Y-69454819D01*
X137880952Y-69454819D02*
X137880952Y-68454819D01*
X137880952Y-68454819D02*
X137785714Y-68597676D01*
X137785714Y-68597676D02*
X137690476Y-68692914D01*
X137690476Y-68692914D02*
X137595238Y-68740533D01*
X143214285Y-68931009D02*
X143357142Y-68978628D01*
X143357142Y-68978628D02*
X143404761Y-69026247D01*
X143404761Y-69026247D02*
X143452380Y-69121485D01*
X143452380Y-69121485D02*
X143452380Y-69264342D01*
X143452380Y-69264342D02*
X143404761Y-69359580D01*
X143404761Y-69359580D02*
X143357142Y-69407200D01*
X143357142Y-69407200D02*
X143261904Y-69454819D01*
X143261904Y-69454819D02*
X142880952Y-69454819D01*
X142880952Y-69454819D02*
X142880952Y-68454819D01*
X142880952Y-68454819D02*
X143214285Y-68454819D01*
X143214285Y-68454819D02*
X143309523Y-68502438D01*
X143309523Y-68502438D02*
X143357142Y-68550057D01*
X143357142Y-68550057D02*
X143404761Y-68645295D01*
X143404761Y-68645295D02*
X143404761Y-68740533D01*
X143404761Y-68740533D02*
X143357142Y-68835771D01*
X143357142Y-68835771D02*
X143309523Y-68883390D01*
X143309523Y-68883390D02*
X143214285Y-68931009D01*
X143214285Y-68931009D02*
X142880952Y-68931009D01*
X143738095Y-68454819D02*
X144309523Y-68454819D01*
X144023809Y-69454819D02*
X144023809Y-68454819D01*
X144595238Y-68550057D02*
X144642857Y-68502438D01*
X144642857Y-68502438D02*
X144738095Y-68454819D01*
X144738095Y-68454819D02*
X144976190Y-68454819D01*
X144976190Y-68454819D02*
X145071428Y-68502438D01*
X145071428Y-68502438D02*
X145119047Y-68550057D01*
X145119047Y-68550057D02*
X145166666Y-68645295D01*
X145166666Y-68645295D02*
X145166666Y-68740533D01*
X145166666Y-68740533D02*
X145119047Y-68883390D01*
X145119047Y-68883390D02*
X144547619Y-69454819D01*
X144547619Y-69454819D02*
X145166666Y-69454819D01*
X144388095Y-80754819D02*
X144388095Y-81564342D01*
X144388095Y-81564342D02*
X144435714Y-81659580D01*
X144435714Y-81659580D02*
X144483333Y-81707200D01*
X144483333Y-81707200D02*
X144578571Y-81754819D01*
X144578571Y-81754819D02*
X144769047Y-81754819D01*
X144769047Y-81754819D02*
X144864285Y-81707200D01*
X144864285Y-81707200D02*
X144911904Y-81659580D01*
X144911904Y-81659580D02*
X144959523Y-81564342D01*
X144959523Y-81564342D02*
X144959523Y-80754819D01*
X145388095Y-80850057D02*
X145435714Y-80802438D01*
X145435714Y-80802438D02*
X145530952Y-80754819D01*
X145530952Y-80754819D02*
X145769047Y-80754819D01*
X145769047Y-80754819D02*
X145864285Y-80802438D01*
X145864285Y-80802438D02*
X145911904Y-80850057D01*
X145911904Y-80850057D02*
X145959523Y-80945295D01*
X145959523Y-80945295D02*
X145959523Y-81040533D01*
X145959523Y-81040533D02*
X145911904Y-81183390D01*
X145911904Y-81183390D02*
X145340476Y-81754819D01*
X145340476Y-81754819D02*
X145959523Y-81754819D01*
D12*
%TO.C,D1*%
X136135000Y-74715000D02*
X133865000Y-74715000D01*
X133865000Y-74715000D02*
X133865000Y-78600000D01*
X136135000Y-78600000D02*
X136135000Y-74715000D01*
%TO.C,BT1*%
X135590000Y-74210000D02*
X138410000Y-74210000D01*
X135590000Y-74210000D02*
X134290000Y-72510000D01*
X138410000Y-74210000D02*
X139710000Y-72510000D01*
X134290000Y-72510000D02*
X134290000Y-63790000D01*
X139710000Y-72510000D02*
X139710000Y-63790000D01*
X134290000Y-63790000D02*
X139710000Y-63790000D01*
%TO.C,BT2*%
X142590000Y-74210000D02*
X145410000Y-74210000D01*
X142590000Y-74210000D02*
X141290000Y-72510000D01*
X145410000Y-74210000D02*
X146710000Y-72510000D01*
X141290000Y-72510000D02*
X141290000Y-63790000D01*
X146710000Y-72510000D02*
X146710000Y-63790000D01*
X141290000Y-63790000D02*
X146710000Y-63790000D01*
%TO.C,U2*%
X141550000Y-77640000D02*
X147560000Y-77640000D01*
X143800000Y-84460000D02*
X147560000Y-84460000D01*
X147560000Y-77640000D02*
X147560000Y-78900000D01*
X147560000Y-84460000D02*
X147560000Y-83200000D01*
%TO.C,TP3*%
X162899000Y-73700000D02*
X153501000Y-73700000D01*
X162899000Y-70300000D02*
X162899000Y-73700000D01*
X153501000Y-73700000D02*
X153501000Y-70300000D01*
X153501000Y-70300000D02*
X162899000Y-70300000D01*
%TO.C,TP6*%
X156949000Y-66950000D02*
X147551000Y-66950000D01*
X156949000Y-63550000D02*
X156949000Y-66950000D01*
X147551000Y-66950000D02*
X147551000Y-63550000D01*
X147551000Y-63550000D02*
X156949000Y-63550000D01*
%TO.C,R1*%
X135710000Y-81810436D02*
X135710000Y-83264564D01*
X133890000Y-81810436D02*
X133890000Y-83264564D01*
%TO.C,C2*%
X140910000Y-76288748D02*
X140910000Y-77711252D01*
X139090000Y-76288748D02*
X139090000Y-77711252D01*
%TO.C,C1*%
X137788748Y-82840000D02*
X139211252Y-82840000D01*
X137788748Y-84660000D02*
X139211252Y-84660000D01*
%TO.C,TP7*%
X136550000Y-79550000D02*
X138950000Y-79550000D01*
X136550000Y-81950000D02*
X136550000Y-79550000D01*
X138950000Y-79550000D02*
X138950000Y-81950000D01*
X138950000Y-81950000D02*
X136550000Y-81950000D01*
%TO.C,R2*%
X138410000Y-76272936D02*
X138410000Y-77727064D01*
X136590000Y-76272936D02*
X136590000Y-77727064D01*
%TD*%
M02*
