%TF.GenerationSoftware,KiCad,Pcbnew,7.0.7*%
%TF.CreationDate,2024-08-19T02:41:26-07:00*%
%TF.ProjectId,CombatPDB,436f6d62-6174-4504-9442-2e6b69636164,rev?*%
%TF.SameCoordinates,Original*%
%TF.FileFunction,Copper,L2,Bot*%
%TF.FilePolarity,Positive*%
%FSLAX46Y46*%
G04 Gerber Fmt 4.6, Leading zero omitted, Abs format (unit mm)*
G04 Created by KiCad (PCBNEW 7.0.7) date 2024-08-19 02:41:26*
%MOMM*%
%LPD*%
G01*
G04 APERTURE LIST*
%TA.AperFunction,ComponentPad*%
%ADD10R,3.800000X3.800000*%
%TD*%
%TA.AperFunction,ComponentPad*%
%ADD11C,4.000000*%
%TD*%
%TA.AperFunction,ViaPad*%
%ADD12C,8.000000*%
%TD*%
%TA.AperFunction,ViaPad*%
%ADD13C,5.600000*%
%TD*%
%TA.AperFunction,ViaPad*%
%ADD14C,3.000000*%
%TD*%
%TA.AperFunction,ViaPad*%
%ADD15C,2.500000*%
%TD*%
G04 APERTURE END LIST*
D10*
%TO.P,BT1,1,+*%
%TO.N,/VBAT*%
X137000000Y-66500000D03*
D11*
%TO.P,BT1,2,-*%
%TO.N,GND*%
X137000000Y-71500000D03*
%TD*%
D10*
%TO.P,BT2,1,+*%
%TO.N,/VBAT*%
X144000000Y-66500000D03*
D11*
%TO.P,BT2,2,-*%
%TO.N,GND*%
X144000000Y-71500000D03*
%TD*%
D12*
%TO.N,GND*%
X159200000Y-80600000D03*
D13*
%TO.N,*%
X160500000Y-66000000D03*
D14*
%TO.N,GND*%
X158200000Y-72000000D03*
X161200000Y-72000000D03*
D13*
X149600000Y-74400000D03*
D14*
X155200000Y-72000000D03*
D15*
%TO.N,/VBAT*%
X153500000Y-67750000D03*
X148500000Y-67750000D03*
D14*
X149250000Y-65250000D03*
D15*
X151000000Y-67750000D03*
D14*
X155250000Y-65250000D03*
D15*
X156000000Y-67750000D03*
D14*
X152250000Y-65250000D03*
%TD*%
%TA.AperFunction,Conductor*%
%TO.N,/VBAT*%
G36*
X157886090Y-63666139D02*
G01*
X157952776Y-63686976D01*
X157997614Y-63740561D01*
X158006363Y-63809880D01*
X157978456Y-63870396D01*
X157868641Y-63999680D01*
X157868634Y-63999690D01*
X157667790Y-64295913D01*
X157667784Y-64295922D01*
X157500151Y-64612111D01*
X157500142Y-64612129D01*
X157367674Y-64944600D01*
X157367672Y-64944607D01*
X157271932Y-65289434D01*
X157271926Y-65289460D01*
X157214029Y-65642614D01*
X157214028Y-65642631D01*
X157194652Y-65999997D01*
X157194652Y-66000002D01*
X157214028Y-66357368D01*
X157214029Y-66357385D01*
X157271926Y-66710539D01*
X157271932Y-66710565D01*
X157367672Y-67055392D01*
X157367674Y-67055399D01*
X157500142Y-67387870D01*
X157500151Y-67387888D01*
X157667784Y-67704077D01*
X157667790Y-67704086D01*
X157868634Y-68000309D01*
X157868641Y-68000319D01*
X158100331Y-68273085D01*
X158100332Y-68273086D01*
X158360163Y-68519211D01*
X158645081Y-68735800D01*
X158951747Y-68920315D01*
X158951749Y-68920316D01*
X158951751Y-68920317D01*
X158951755Y-68920319D01*
X159122903Y-68999500D01*
X159276565Y-69070591D01*
X159615726Y-69184868D01*
X159965254Y-69261805D01*
X160321052Y-69300500D01*
X160321058Y-69300500D01*
X160678942Y-69300500D01*
X160678948Y-69300500D01*
X161034746Y-69261805D01*
X161384274Y-69184868D01*
X161723435Y-69070591D01*
X162048253Y-68920315D01*
X162354919Y-68735800D01*
X162550959Y-68586773D01*
X162616241Y-68561875D01*
X162684622Y-68576222D01*
X162734390Y-68625261D01*
X162750000Y-68685490D01*
X162750000Y-69623824D01*
X162730315Y-69690863D01*
X162677511Y-69736618D01*
X162623844Y-69747805D01*
X145469961Y-69449476D01*
X145403274Y-69428629D01*
X145399232Y-69425813D01*
X145342495Y-69384591D01*
X145342488Y-69384586D01*
X145342484Y-69384584D01*
X145066766Y-69233006D01*
X145066763Y-69233004D01*
X145066758Y-69233002D01*
X145066757Y-69233001D01*
X144774228Y-69117181D01*
X144774225Y-69117180D01*
X144469476Y-69038934D01*
X144469463Y-69038932D01*
X144157329Y-68999500D01*
X144157318Y-68999500D01*
X143842682Y-68999500D01*
X143842670Y-68999500D01*
X143530536Y-69038932D01*
X143530523Y-69038934D01*
X143225774Y-69117180D01*
X143225771Y-69117181D01*
X142933242Y-69233001D01*
X142933234Y-69233005D01*
X142658247Y-69384181D01*
X142596354Y-69399500D01*
X138262227Y-69324125D01*
X138204646Y-69308806D01*
X138066765Y-69233005D01*
X138066757Y-69233001D01*
X137774228Y-69117181D01*
X137774225Y-69117180D01*
X137469476Y-69038934D01*
X137469463Y-69038932D01*
X137157329Y-68999500D01*
X137157318Y-68999500D01*
X136842682Y-68999500D01*
X136842670Y-68999500D01*
X136530536Y-69038932D01*
X136530523Y-69038934D01*
X136225774Y-69117180D01*
X136225771Y-69117181D01*
X135933235Y-69233004D01*
X135872896Y-69266176D01*
X135811003Y-69281495D01*
X134116870Y-69252032D01*
X134050183Y-69231185D01*
X134005353Y-69177593D01*
X133995134Y-69133217D01*
X133755475Y-63381409D01*
X133772352Y-63313610D01*
X133823206Y-63265697D01*
X133881504Y-63252267D01*
X157886090Y-63666139D01*
G37*
%TD.AperFunction*%
%TD*%
%TA.AperFunction,Conductor*%
%TO.N,GND*%
G36*
X162902471Y-76231178D02*
G01*
X162964565Y-76263209D01*
X162999486Y-76323727D01*
X163002920Y-76349287D01*
X163246246Y-84622355D01*
X163228541Y-84689944D01*
X163177105Y-84737231D01*
X163122300Y-84750000D01*
X133880820Y-84750000D01*
X133813781Y-84730315D01*
X133768026Y-84677511D01*
X133756998Y-84619367D01*
X134201407Y-76323727D01*
X134492388Y-70892079D01*
X134515630Y-70826190D01*
X134570806Y-70783326D01*
X134639703Y-70776960D01*
X162902471Y-76231178D01*
G37*
%TD.AperFunction*%
%TD*%
M02*
